<?xml version="1.0" encoding="UTF-8" standalone="no"?>
<!-- Generator: Adobe Illustrator 26.0.1, SVG Export Plug-In . SVG Version: 6.00 Build 0)  -->

<svg
   version="1.1"
   id="Capa_1"
   x="0px"
   y="0px"
   viewBox="0 0 24 24"
   style="enable-background:new 0 0 24 24;"
   xml:space="preserve"
   width="512"
   height="512"
   sodipodi:docname="youtube_6422215.svg"
   inkscape:export-filename="youtube_32.png"
   inkscape:export-xdpi="6"
   inkscape:export-ydpi="6"
   inkscape:version="1.3.1 (1:1.3.1+202311172155+91b66b0783)"
   xmlns:inkscape="http://www.inkscape.org/namespaces/inkscape"
   xmlns:sodipodi="http://sodipodi.sourceforge.net/DTD/sodipodi-0.dtd"
   xmlns="http://www.w3.org/2000/svg"
   xmlns:svg="http://www.w3.org/2000/svg"><defs
   id="defs1" /><sodipodi:namedview
   id="namedview1"
   pagecolor="#ffffff"
   bordercolor="#666666"
   borderopacity="1.0"
   inkscape:showpageshadow="2"
   inkscape:pageopacity="0.0"
   inkscape:pagecheckerboard="0"
   inkscape:deskcolor="#d1d1d1"
   inkscape:zoom="1.2675781"
   inkscape:cx="256"
   inkscape:cy="256"
   inkscape:window-width="1600"
   inkscape:window-height="831"
   inkscape:window-x="0"
   inkscape:window-y="40"
   inkscape:window-maximized="1"
   inkscape:current-layer="Capa_1" />
<g
   id="XMLID_184_">
	<path
   d="M23.498,6.186c-0.276-1.039-1.089-1.858-2.122-2.136C19.505,3.546,12,3.546,12,3.546s-7.505,0-9.377,0.504   C1.591,4.328,0.778,5.146,0.502,6.186C0,8.07,0,12,0,12s0,3.93,0.502,5.814c0.276,1.039,1.089,1.858,2.122,2.136   C4.495,20.454,12,20.454,12,20.454s7.505,0,9.377-0.504c1.032-0.278,1.845-1.096,2.122-2.136C24,15.93,24,12,24,12   S24,8.07,23.498,6.186z M9.546,15.569V8.431L15.818,12L9.546,15.569z"
   id="path1" />
</g>















</svg>
