<svg height="320" width="320" xmlns="http://www.w3.org/2000/svg" xmlns:xlink="http://www.w3.org/1999/xlink"><linearGradient id="a" gradientUnits="userSpaceOnUse" x1="27.720318" x2="364.43222" y1="74.364464" y2="283.53381"><stop offset="0" stop-color="#6972be"/><stop offset="1" stop-color="#ecf2f9"/></linearGradient><g transform="translate(0 -732.36218)"><path d="m320 160a160 160 0 0 1-160 160 160 160 0 0 1-160-160 160 160 0 0 1  160-160 160 160 0 0 1  160 160z" fill="url(#a)" stroke="#d10000" stroke-width="3.06101611" transform="matrix(.98006629 0 0 .98006714 2.8322509 734.48001)"/><ellipse cx="99.926041" cy="806.4812" fill="#440081" rx="6.0017328" ry="5.8132815" stroke="#f8e5a0" stroke-linejoin="round" stroke-width="1.16585922"/><path d="m179 66h16v23h6v20h-22z" fill="#440081" transform="translate(0 732.36218)"/><g fill="#282828" font-family="Times New Roman" font-style="italic" transform="matrix(1.1333706 0 0 1 -3.9762078 -.95238095)" word-spacing="0"><text font-size="92.03997803" font-weight="bold" letter-spacing="-2.84097838" line-height="125%" transform="scale(.93829368 1.0657644)" x="66.1287" xml:space="preserve" y="869.1842"><tspan x="66.1287" y="869.1842">Э</tspan></text><text font-size="87.92663574" letter-spacing="-2.71401262" line-height="125%" transform="scale(.89636063 1.1156224)" x="134.58414" xml:space="preserve" y="831.00165"><tspan fill="#282828" font-family="Times New Roman" font-style="italic" font-weight="bold" x="134.58414" y="831.00165">П</tspan></text><text font-size="90.55177307" letter-spacing="-2.79504228" line-height="125%" transform="scale(.92312242 1.0832799)" x="202.41783" xml:space="preserve" y="855.73444"><tspan fill="#282828" font-family="Times New Roman" font-style="italic" font-weight="bold" x="202.41783" y="855.73444">Г</tspan></text></g><text transform="translate(0 732.36218)" x="110.6117" y="115.69665"><tspan/></text><g fill="#fff" font-family="Times New Roman" font-style="italic" transform="matrix(1.1333706 0 0 1 -12.566292 -7.6962272)" word-spacing="0"><text font-size="92.03997803" font-weight="bold" letter-spacing="-2.84097838" line-height="125%" transform="scale(.93829368 1.0657644)" x="66.1287" xml:space="preserve" y="869.1842"><tspan x="66.1287" y="869.1842">Э</tspan></text><text font-size="87.92663574" letter-spacing="-2.71401262" line-height="125%" transform="scale(.89636063 1.1156224)" x="133.5898" xml:space="preserve" y="831.00165"><tspan fill="#fff" font-family="Times New Roman" font-style="italic" font-weight="bold" x="133.5898" y="831.00165">П</tspan></text><text font-size="90.55177307" letter-spacing="-2.79504228" line-height="125%" transform="scale(.92312242 1.0832799)" x="202.41783" xml:space="preserve" y="855.73444"><tspan fill="#fff" font-family="Times New Roman" font-style="italic" font-weight="bold" x="202.41783" y="855.73444">Г</tspan></text></g><text line-height="110.00000238%" style="font-size:18.4587059;font-family:Times New Roman;letter-spacing:0;word-spacing:0;text-anchor:middle;fill:#d10000" transform="scale(.99822237 1.0017808)" x="158.53404" xml:space="preserve" y="962.20514"><tspan fill="#d10000" font-family="Times New Roman" font-size="18.4587059" line-height="110.00000238%" x="158.53404" y="962.20514">Кафедра электроснабжения</tspan><tspan fill="#d10000" font-family="Times New Roman" font-size="18.4587059" line-height="110.00000238%" x="158.53404" y="982.5097">промышленных предприятий</tspan><tspan fill="#d10000" font-family="Times New Roman" font-size="18.4587059" line-height="110.00000238%" x="158.53404" y="1002.8143">и городов</tspan></text><g fill="none" stroke="#f8e5a0" stroke-width="3"><path d="m30 140h26" stroke-width="4.5" transform="translate(0 732.36218)"/><path d="m16 886.36218h35" stroke-width="3"/><path d="m20 900.36218h28" stroke-width="3"/><path d="m275 872.36218h26" stroke-width="4.5"/><path d="m266 900.36218h27" stroke-width="3"/><path d="m269 886.36218h35" stroke-width="3"/></g><text line-height="110.00000238%" style="font-size:23.91577339;font-family:Times New Roman;letter-spacing:0;word-spacing:0;text-anchor:middle;fill:#fff" xml:space="preserve"><textPath startOffset="50%" xlink:href="#b"><tspan fill="#fff" font-family="Times New Roman" font-size="23.91577339" line-height="110.00000238%">Электротехнический факультет</tspan></textPath></text><path id="b" d="m300 160a140 140 0 0 1-140 140 140 140 0 0 1-140-140 140 140 0 0 1  140-140 140 140 0 0 1  140 140z" fill="none" transform="matrix(0 .95851735 -.95851735 0 314.5423 737.81987)"/><path d="m179 66v43h22l-.002-19.988238-5.998-.011762" fill="none" stroke="#f8e5a0" stroke-width="1.5" transform="translate(0 732.36218)"/><path d="m97 80h6v29h-6z" fill="#440081" stroke="#f8e5a0" stroke-width="1.5" transform="translate(0 732.36218)"/><path d="m112.10714 73.5a12.107143 12.375 0 0 1-12.10714 12.375 12.107143 12.375 0 0 1-12.107143-12.375 12.107143 12.375 0 0 1  12.107143-12.375 12.107143 12.375 0 0 1  12.10714 12.375z" fill="#440081" stroke="#f8e5a0" stroke-linejoin="round" stroke-width="1.5" transform="matrix(.95394206 0 0 .9617986 127.18859 758.93159)"/><path d="m214.10714 109.46429h21.00587" fill="none" stroke="#f8e5a0" stroke-width="1.5" transform="translate(0 732.36218)"/><path d="m137.91582 109.93613l8.51275-70.174226 10.71429 69.880956" fill="none" stroke="#f8e5a0" stroke-width="1.7" transform="translate(0 732.36218)"/><path d="m152.5 78.690476l-12.38095 13.690476 17.02381 17.261908" fill="none" stroke="#f8e5a0" stroke-linecap="round" stroke-width="1.5" transform="translate(0 732.36218)"/><path d="m144.00597 792.71948l6.54762 8.45238-9.16666 11.66667" fill="none" stroke="#f8e5a0" stroke-linecap="round"/><path d="m137.19048 801.24313l18.80952.11905" fill="none" stroke="#f8e5a0" stroke-linecap="round" stroke-width="1.5"/><path d="m155 825.36218l-13-16-1.46502 1.36152z" fill="#f8e5a0"/><path d="m155 824.36218l-17.51798 15.6978 1.51798 1.3022z" fill="#f8e5a0"/><path d="m168.77965 48.717509l-2.06646-.03559-1.71319 60.318081h6" fill="none" stroke="#f8e5a0" stroke-width="1.5" transform="translate(0 732.36218)"/><path d="m195 109v-43" fill="none" stroke="#f8e5a0" stroke-width="1.5" transform="translate(0 732.36218)"/><path d="m192 90h-7v11h7" fill="none" stroke="#f8e5a0" stroke-width="1.5" transform="translate(0 732.36218)"/><path d="m185 82h10" fill="none" stroke="#f8e5a0" stroke-width="1.5" transform="translate(0 732.36218)"/><path d="m185 75h10" fill="none" stroke="#f8e5a0" stroke-width="1.5" transform="translate(0 732.36218)"/><path d="m185 71h10" fill="none" stroke="#f8e5a0" stroke-width="1.5" transform="translate(0 732.36218)"/><path d="m100 80v-12" fill="none" stroke="#f8e5a0" transform="translate(0 732.36218)"/><path d="m166.01191 70.059523h3.5119" fill="none" stroke="#f8e5a0" stroke-width="1.5" transform="translate(0 732.36218)"/><path d="m166.13095 63.095237h3.15476" fill="none" stroke="#f8e5a0" stroke-width="1.5" transform="translate(0 732.36218)"/><path d="m205 107l3-45 2 45" fill="none" stroke="#f8e5a0" stroke-width="1.5" transform="translate(0 732.36218)"/><path d="m168 47h15l7-5h11l1-1" fill="none" stroke="#f8e5a0" stroke-linecap="round" transform="translate(0 732.36218)"/><path d="m184 59l24 3" fill="none" stroke="#f8e5a0" stroke-width="1.5" transform="translate(0 732.36218)"/><path d="m208 62l10 6" fill="none" stroke="#f8e5a0" stroke-linecap="round" stroke-width="1.5" transform="translate(0 732.36218)"/><path d="m208 71h-4l .0842 4.242386 3.9158-.08418" fill="#f8e5a0" transform="translate(0 732.36218)"/><path d="m215 71h4v2h-4z" fill="#f8e5a0" transform="translate(0 732.36218)"/><path d="m219 86l1-4h5l1 4" fill="none" stroke="#f8e5a0" stroke-width="1.5" transform="translate(0 732.36218)"/><path d="m229 85v15" fill="none" stroke="#f8e5a0" stroke-width="1.5" transform="translate(0 732.36218)"/><path d="m138 841.36218l-17-28-18 28" fill="none" stroke="#f8e5a0" stroke-width="1.5"/><path d="m103 811.36218l8 17" fill="none" stroke="#f8e5a0" stroke-width="1.5"/><path d="m128 824.36218l7-10 5 6" fill="none" stroke="#f8e5a0" stroke-linecap="square" stroke-width="1.5"/><path d="m184 791.36218l34 9" fill="none" stroke="#f8e5a0"/><path d="m179 798.36218h16" fill="none" stroke="#f8e5a0" stroke-linecap="square" stroke-width="1.5"/><path d="m192 822.36218v11" fill="none" stroke="#f8e5a0" stroke-linecap="square"/><path d="m94 806.36218h12" fill="none" stroke="#f8e5a0"/><path d="m96 802.36218l8 8" fill="none" stroke="#f8e5a0"/><path d="m104 802.36218l-8 8" fill="none" stroke="#f8e5a0"/><path d="m162 791.36218h-30" fill="none" stroke="#f8e5a0"/><path d="m140 782.36218h13" fill="none" stroke="#f8e5a0"/><path d="m149 792.36218l-6.54762 8.45238 9.16666 11.66667" fill="none" stroke="#f8e5a0" stroke-linecap="round"/><path d="m169 780.36218l2 61" fill="none" stroke="#f8e5a0"/></g></svg>